<?xml version="1.0" standalone="no"?>
<!DOCTYPE svg PUBLIC "-//W3C//DTD SVG 20010904//EN"
 "http://www.w3.org/TR/2001/REC-SVG-20010904/DTD/svg10.dtd">
<svg version="1.0" xmlns="http://www.w3.org/2000/svg"
 width="32.000000pt" height="32.000000pt" viewBox="0 0 32.000000 32.000000"
 preserveAspectRatio="xMidYMid meet">

<g transform="translate(0.000000,32.000000) scale(0.100000,-0.100000)"
fill="#000000" stroke="none">
<path d="M120 278 c-33 -18 -52 -56 -45 -92 5 -30 74 -156 85 -156 3 0 24 30
45 67 46 78 52 131 20 163 -26 26 -74 34 -105 18z m90 -28 c11 -11 20 -32 20
-46 0 -27 -57 -144 -70 -144 -13 0 -70 117 -70 144 0 35 33 66 70 66 17 0 39
-9 50 -20z"/>
<path d="M144 209 c-10 -17 13 -36 27 -22 12 12 4 33 -11 33 -5 0 -12 -5 -16
-11z"/>
</g>
</svg>
