<?xml version="1.0" standalone="no"?>
<!DOCTYPE svg PUBLIC "-//W3C//DTD SVG 20010904//EN"
 "http://www.w3.org/TR/2001/REC-SVG-20010904/DTD/svg10.dtd">
<svg version="1.0" xmlns="http://www.w3.org/2000/svg"
 width="80.000000pt" height="80.000000pt" viewBox="0 0 80.000000 80.000000"
 preserveAspectRatio="xMidYMid meet">

<g transform="translate(0.000000,80.000000) scale(0.100000,-0.100000)"
fill="#000000" stroke="none">
<path d="M155 676 c-19 -21 -38 -56 -48 -91 l-16 -58 39 -76 c71 -135 186
-250 321 -321 70 -36 79 -39 115 -29 96 27 152 76 140 122 -7 29 -109 127
-131 127 -9 0 -40 -22 -69 -50 l-52 -49 -35 20 c-49 30 -107 87 -140 139 l-29
44 44 46 c68 70 68 81 -2 151 -69 69 -91 73 -137 25z m127 -33 c26 -26 48 -56
48 -66 0 -10 -22 -42 -50 -71 l-49 -52 21 -35 c40 -67 79 -108 140 -149 l61
-40 53 50 c29 27 61 50 71 50 26 0 113 -90 113 -117 0 -13 -6 -23 -14 -23 -7
0 -16 -9 -19 -20 -6 -24 -68 -52 -118 -54 -123 -3 -426 300 -423 423 2 50 30
112 54 118 11 3 20 12 20 19 0 29 45 13 92 -33z"/>
<path d="M200 640 c0 -5 5 -10 10 -10 6 0 10 5 10 10 0 6 -4 10 -10 10 -5 0
-10 -4 -10 -10z"/>
<path d="M230 610 c0 -5 5 -10 10 -10 6 0 10 5 10 10 0 6 -4 10 -10 10 -5 0
-10 -4 -10 -10z"/>
<path d="M260 580 c0 -5 5 -10 10 -10 6 0 10 5 10 10 0 6 -4 10 -10 10 -5 0
-10 -4 -10 -10z"/>
<path d="M290 550 c0 -5 5 -10 10 -10 6 0 10 5 10 10 0 6 -4 10 -10 10 -5 0
-10 -4 -10 -10z"/>
<path d="M540 300 c0 -5 5 -10 10 -10 6 0 10 5 10 10 0 6 -4 10 -10 10 -5 0
-10 -4 -10 -10z"/>
<path d="M570 270 c0 -5 5 -10 10 -10 6 0 10 5 10 10 0 6 -4 10 -10 10 -5 0
-10 -4 -10 -10z"/>
<path d="M600 240 c0 -5 5 -10 10 -10 6 0 10 5 10 10 0 6 -4 10 -10 10 -5 0
-10 -4 -10 -10z"/>
<path d="M630 210 c0 -5 5 -10 10 -10 6 0 10 5 10 10 0 6 -4 10 -10 10 -5 0
-10 -4 -10 -10z"/>
</g>
</svg>
