<?xml version="1.0" encoding="UTF-8"?>
<svg xmlns="http://www.w3.org/2000/svg" xmlns:xlink="http://www.w3.org/1999/xlink" viewBox="0 0 30 30" width="30px" height="30px">
<g id="surface35468502">
<path style=" stroke:none;fill-rule:nonzero;fill:rgb(14.509805%,34.901962%,46.666667%);fill-opacity:1;" d="M 15 3 C 8.371094 3 3 8.371094 3 15 C 3 21.628906 8.371094 27 15 27 C 21.628906 27 27 21.628906 27 15 C 27 8.371094 21.628906 3 15 3 Z M 16 16 L 7.996094 16 C 7.445312 16 7 15.554688 7 15.003906 L 7 14.992188 C 7 14.445312 7.445312 14 7.996094 14 L 14 14 L 14 5.996094 C 14 5.445312 14.445312 5 14.996094 5 L 15.007812 5 C 15.554688 5 16 5.445312 16 5.996094 Z M 16 16 "/>
</g>
</svg>
